
<svg xmlns="http://www.w3.org/2000/svg" x="0px" y="0px"
	 viewBox="0 0 333.115 333.115" style="enable-background:new 0 0 333.115 333.115;" xml:space="preserve" fill="#DDDDDD">
<path d="M229.143,235.253c-5.458,0-10.697,0.909-15.602,2.566l-61.606-61.6c0.633-3.124,0.965-6.354,0.965-9.661
	c0-3.307-0.332-6.535-0.965-9.656l61.606-61.602c4.904,1.655,10.144,2.568,15.602,2.568c26.986,0,48.938-21.951,48.938-48.931
	C278.08,21.952,256.129,0,229.143,0c-26.976,0-48.925,21.952-48.925,48.938c0,5.459,0.907,10.703,2.563,15.609l-57.824,57.822
	c-6.363-3.036-13.48-4.743-20.986-4.743c-26.985,0-48.936,21.953-48.936,48.932c0,26.986,21.95,48.938,48.936,48.938
	c7.506,0,14.623-1.706,20.987-4.743l57.823,57.824c-1.656,4.903-2.563,10.152-2.563,15.608c0,26.981,21.949,48.931,48.925,48.931
	c26.986,0,48.938-21.949,48.938-48.931C278.08,257.203,256.129,235.253,229.143,235.253z"/>
<g>
</g>
</svg>
